# Blender v2.77 (sub 0) OBJ File: 'outboard-motor.blend'
# www.blender.org
mtllib outboard-motor.mtl
o Cylinder.001_Cylinder.003
v -0.092388 0.250000 -0.838268
v -0.092388 0.250000 -0.761732
v -0.038268 0.250000 -0.707612
v -0.038268 0.250000 -0.892388
v 0.038268 0.250000 -0.892388
v 0.092388 0.250000 -0.838268
v 0.092388 0.250000 -0.761732
v 0.038268 0.250000 -0.707612
v 0.000000 0.350000 -0.800000
v -0.092388 -0.100000 -0.838268
v -0.092388 -0.100000 -0.761732
v -0.038268 -0.100000 -0.707612
v -0.038268 -0.100000 -0.892388
v 0.038268 -0.100000 -0.892388
v 0.092388 -0.100000 -0.838268
v 0.092388 -0.100000 -0.761732
v 0.038268 -0.100000 -0.707612
v -0.000000 -0.108427 -1.000000
v 0.000000 0.100000 -1.000000
v 0.000000 -0.100000 -0.607612
v 0.000000 0.100000 -0.607612
vn -0.0000 -1.0000 -0.0000
vn 0.0000 -0.9969 0.0781
vn 0.4415 0.4699 0.7643
vn -0.4415 0.4699 0.7643
vn 0.0000 0.1073 0.9942
vn 0.0000 1.0000 0.0000
vn -0.8643 0.3531 0.3580
vn 0.8643 0.3531 0.3580
vn -0.4467 0.4763 -0.7573
vn 0.4467 0.4763 -0.7573
vn 0.8643 0.3531 -0.3580
vn -0.8643 0.3531 -0.3580
vn -0.5625 -0.7576 -0.3311
vn -0.7173 -0.6302 -0.2971
vn 0.5480 -0.7571 0.3555
vn 0.7173 -0.6302 0.2971
vn 0.7173 -0.6302 -0.2971
vn 0.5625 -0.7576 -0.3311
vn -0.7173 -0.6302 0.2971
vn -0.5480 -0.7571 0.3555
vn 0.0000 0.1182 -0.9930
vn 0.0000 -0.5816 -0.8134
vn 0.0000 -0.5456 0.8380
usemtl Stainless
s off
f 14//1 15//1 16//1 17//1 12//1 11//1 10//1 13//1
f 13//2 18//2 14//2
f 17//1 20//1 12//1
s 1
f 8//3 3//4 21//5
f 3//4 9//6 2//7
f 9//6 8//3 7//8
f 4//9 9//6 5//10
f 5//10 9//6 6//11
f 6//11 9//6 7//8
f 9//6 4//9 1//12
f 2//7 9//6 1//12
f 1//12 4//9 13//13 10//14
f 7//8 8//3 17//15 16//16
f 5//10 6//11 15//17 14//18
f 2//7 1//12 10//14 11//19
f 6//11 7//8 16//16 15//17
f 3//4 2//7 11//19 12//20
f 4//9 5//10 19//21
f 13//13 4//9 19//21 18//22
f 14//18 18//22 19//21 5//10
f 9//6 3//4 8//3
f 20//23 21//5 3//4 12//20
f 21//5 20//23 17//15 8//3
o Cylinder_Cylinder.002
v 0.000000 0.100000 -0.800000
v 0.000000 0.100000 1.000000
v 0.035355 0.070711 -0.800000
v 0.035355 0.070711 1.000000
v 0.050000 -0.000000 -0.800000
v 0.050000 -0.000000 1.000000
v 0.035355 -0.070711 -0.800000
v 0.035355 -0.070711 1.000000
v -0.000000 -0.100000 -0.800000
v -0.000000 -0.100000 1.000000
v -0.035355 -0.070711 -0.800000
v -0.035355 -0.070711 1.000000
v -0.050000 0.000000 -0.800000
v -0.050000 0.000000 1.000000
v -0.035355 0.070711 -0.800000
v -0.035355 0.070711 1.000000
vn 0.0000 0.8090 -0.5878
vn 0.0000 1.0000 0.0000
vn 0.8569 0.5155 0.0000
vn 0.6587 0.3962 -0.6396
vn 1.0000 0.0000 0.0000
vn 0.7476 0.0000 -0.6642
vn 0.8569 -0.5155 0.0000
vn 0.6587 -0.3962 -0.6396
vn 0.0000 -1.0000 0.0000
vn 0.0000 -0.8090 -0.5878
vn -0.8569 -0.5155 0.0000
vn -0.6587 -0.3962 -0.6396
vn -1.0000 0.0000 0.0000
vn -0.7476 0.0000 -0.6642
vn -0.8569 0.5155 0.0000
vn -0.6587 0.3962 -0.6396
usemtl Stainless
s 1
f 22//24 23//25 25//26 24//27
f 24//27 25//26 27//28 26//29
f 26//29 27//28 29//30 28//31
f 28//31 29//30 31//32 30//33
f 30//33 31//32 33//34 32//35
f 32//35 33//34 35//36 34//37
f 34//37 35//36 37//38 36//39
f 36//39 37//38 23//25 22//24
f 22//24 24//27 26//29 28//31 30//33 32//35 34//37 36//39
o Engine_Cube.001
v -0.025757 -0.529512 0.705625
v -0.167243 -0.365529 0.680751
v -0.064506 -0.347280 0.556172
v -0.078838 -0.505419 0.697720
v -0.038093 -0.502657 0.643207
v -0.084931 -0.490411 0.638920
v -0.146764 -0.381300 0.623956
v -0.130399 -0.445659 0.688656
v -0.119355 -0.451850 0.632778
v -0.052171 -0.436450 0.588909
v -0.109555 -0.374691 0.578836
v -0.094684 -0.448895 0.601474
v -0.167243 -0.365529 0.944375
v -0.025757 -0.529512 0.944375
v -0.065494 -0.340512 1.062500
v -0.132482 -0.451988 0.944375
v -0.152324 -0.357612 1.003360
v -0.118931 -0.440653 1.000864
v -0.029740 -0.499688 1.003360
v -0.080548 -0.512180 0.944375
v -0.082368 -0.483030 1.000864
v -0.114976 -0.348429 1.046719
v -0.044326 -0.430313 1.046719
v -0.092637 -0.434188 1.031390
v -0.167243 0.179030 0.587134
v -0.025757 0.343013 0.555625
v -0.064506 0.160781 0.468828
v -0.132662 0.264251 0.571433
v -0.152011 0.173255 0.528091
v -0.118801 0.255045 0.515553
v -0.029428 0.315331 0.500792
v -0.080729 0.324443 0.559867
v -0.082238 0.297422 0.507411
v -0.114301 0.166556 0.484666
v -0.043651 0.248441 0.468933
v -0.092252 0.250330 0.484981
v -0.065494 0.154013 1.062500
v -0.025757 0.343013 0.944375
v -0.167243 0.179030 0.944375
v -0.044326 0.243814 1.046719
v -0.114976 0.161930 1.046719
v -0.092637 0.247689 1.031390
v -0.080548 0.325681 0.944375
v -0.029741 0.313189 1.003360
v -0.082368 0.296531 1.000864
v -0.152324 0.171113 1.003360
v -0.132482 0.265489 0.944375
v -0.118931 0.254154 1.000864
v 0.176728 -0.365529 0.680751
v 0.035243 -0.529512 0.705625
v 0.073991 -0.347280 0.556172
v 0.139884 -0.445659 0.688656
v 0.156249 -0.381300 0.623956
v 0.128840 -0.451850 0.632778
v 0.047578 -0.502657 0.643207
v 0.088323 -0.505419 0.697720
v 0.094416 -0.490411 0.638920
v 0.119040 -0.374691 0.578836
v 0.061656 -0.436450 0.588909
v 0.104169 -0.448895 0.601474
v 0.074979 -0.340512 1.062500
v 0.035243 -0.529512 0.944375
v 0.176728 -0.365529 0.944375
v 0.053811 -0.430313 1.046719
v 0.124461 -0.348429 1.046719
v 0.102122 -0.434188 1.031390
v 0.090033 -0.512180 0.944375
v 0.039226 -0.499688 1.003360
v 0.091853 -0.483030 1.000864
v 0.161809 -0.357612 1.003360
v 0.141967 -0.451988 0.944375
v 0.128416 -0.440653 1.000864
v 0.176728 0.179030 0.587134
v 0.073991 0.160781 0.468828
v 0.035243 0.343013 0.555625
v 0.161496 0.173255 0.528092
v 0.142147 0.264251 0.571433
v 0.128286 0.255046 0.515553
v 0.053136 0.248441 0.468933
v 0.123786 0.166556 0.484666
v 0.101737 0.250330 0.484981
v 0.090214 0.324443 0.559867
v 0.038913 0.315331 0.500792
v 0.091723 0.297422 0.507411
v 0.074979 0.154013 1.062500
v 0.176728 0.179030 0.944375
v 0.035243 0.343013 0.944375
v 0.124461 0.161930 1.046719
v 0.053811 0.243814 1.046719
v 0.102122 0.247689 1.031390
v 0.141967 0.265489 0.944375
v 0.161809 0.171113 1.003360
v 0.128416 0.254154 1.000864
v 0.039226 0.313189 1.003360
v 0.090033 0.325680 0.944375
v 0.091853 0.296531 1.000864
v 0.207757 -0.257233 0.944375
v 0.207757 0.070734 0.944375
v 0.145826 -0.093250 1.062500
v 0.227675 -0.153441 0.944375
v 0.196750 -0.235325 1.003360
v 0.215884 -0.135626 1.000864
v 0.196750 0.048826 1.003360
v 0.227675 -0.033058 0.944375
v 0.215884 -0.050873 1.000864
v 0.174018 -0.175134 1.046719
v 0.174018 -0.011365 1.046719
v 0.199879 -0.093249 1.031390
v 0.207757 0.070734 0.605751
v 0.207757 -0.257233 0.662134
v 0.146777 -0.093250 0.512500
v 0.227501 -0.033058 0.623595
v 0.197051 0.048826 0.548876
v 0.216009 -0.050873 0.568582
v 0.197051 -0.235325 0.597726
v 0.227501 -0.153441 0.644290
v 0.216009 -0.135626 0.583152
v 0.174668 -0.011365 0.514647
v 0.174668 -0.175134 0.542801
v 0.200250 -0.093250 0.544484
v -0.198272 0.070734 0.944375
v -0.198272 -0.257233 0.944375
v -0.136341 -0.093250 1.062500
v -0.218190 -0.033058 0.944375
v -0.187265 0.048826 1.003360
v -0.206399 -0.050873 1.000864
v -0.187265 -0.235325 1.003360
v -0.218190 -0.153441 0.944375
v -0.206399 -0.135626 1.000864
v -0.164533 -0.011365 1.046719
v -0.164533 -0.175134 1.046719
v -0.190394 -0.093250 1.031390
v -0.198272 -0.257233 0.662134
v -0.198272 0.070734 0.605751
v -0.137292 -0.093250 0.512500
v -0.218016 -0.153441 0.644290
v -0.187566 -0.235325 0.597726
v -0.206524 -0.135626 0.583152
v -0.187566 0.048826 0.548876
v -0.218016 -0.033058 0.623595
v -0.206524 -0.050873 0.568582
v -0.165183 -0.175134 0.542801
v -0.165183 -0.011365 0.514647
v -0.190765 -0.093250 0.544484
vn 0.9634 -0.2332 0.1317
vn 0.9344 -0.3289 0.1364
vn 0.9339 -0.3406 -0.1090
vn 0.9597 -0.2521 -0.1237
vn -0.9634 0.2332 0.1317
vn -0.9361 0.3234 0.1383
vn -0.9436 0.3027 -0.1343
vn -0.9687 0.2128 -0.1273
vn 0.9361 0.3234 0.1383
vn 0.9634 0.2332 0.1317
vn 0.9687 0.2128 -0.1273
vn 0.9436 0.3027 -0.1343
vn 0.1385 -0.1176 0.9833
vn 0.2573 0.0000 0.9663
vn 0.1385 0.1176 0.9833
vn -0.1385 0.1176 0.9833
vn -0.2573 0.0000 0.9663
vn -0.1385 -0.1176 0.9833
vn 0.1610 -0.9621 0.2201
vn -0.1610 -0.9621 0.2201
vn -0.1585 -0.9724 -0.1708
vn 0.1585 -0.9724 -0.1708
vn -0.1481 0.9635 0.2228
vn 0.1481 0.9635 0.2228
vn 0.1590 0.9610 -0.2263
vn -0.1590 0.9610 -0.2263
vn -0.1281 -0.2667 -0.9552
vn -0.2635 -0.1631 -0.9507
vn -0.1507 -0.0461 -0.9875
vn 0.1507 -0.0461 -0.9875
vn 0.2635 -0.1631 -0.9507
vn 0.1281 -0.2667 -0.9552
vn -0.5442 -0.8314 -0.1121
vn -0.4430 -0.7805 -0.4411
vn -0.1107 -0.8258 -0.5530
vn -0.8464 -0.5273 -0.0741
vn -0.7732 -0.5239 -0.3572
vn -0.9339 -0.3406 -0.1090
vn -0.8350 -0.3536 -0.4215
vn -0.4875 -0.3289 -0.8088
vn -0.4058 -0.5149 -0.7551
vn -0.0768 -0.4858 -0.8707
vn -0.9344 -0.3288 0.1364
vn -0.8404 -0.5240 0.1379
vn -0.7562 -0.4561 0.4691
vn -0.8292 -0.2886 0.4787
vn -0.5385 -0.8230 0.1807
vn -0.4642 -0.6820 0.5650
vn -0.1247 -0.7476 0.6523
vn -0.1194 -0.3691 0.9217
vn -0.4486 -0.4024 0.7980
vn -0.5041 -0.2082 0.8381
vn -0.8551 0.4986 -0.1416
vn -0.7893 0.3953 -0.4698
vn -0.8528 0.2158 -0.4754
vn -0.5460 0.8165 -0.1877
vn -0.5058 0.6349 -0.5840
vn -0.1487 0.7086 -0.6897
vn -0.1402 0.2408 -0.9604
vn -0.4899 0.2908 -0.8218
vn -0.5323 0.0725 -0.8434
vn -0.1194 0.3691 0.9217
vn -0.4486 0.4024 0.7980
vn -0.5041 0.2082 0.8381
vn -0.1247 0.7476 0.6523
vn -0.4642 0.6820 0.5650
vn -0.5274 0.8281 0.1898
vn -0.8431 0.5177 0.1453
vn -0.7562 0.4561 0.4691
vn -0.8292 0.2886 0.4787
vn 0.8464 -0.5273 -0.0741
vn 0.7732 -0.5239 -0.3572
vn 0.8350 -0.3536 -0.4215
vn 0.5442 -0.8314 -0.1121
vn 0.4430 -0.7805 -0.4411
vn 0.1107 -0.8258 -0.5530
vn 0.0768 -0.4858 -0.8707
vn 0.4058 -0.5149 -0.7551
vn 0.4875 -0.3289 -0.8088
vn 0.1194 -0.3691 0.9217
vn 0.4486 -0.4024 0.7980
vn 0.5041 -0.2082 0.8381
vn 0.1247 -0.7476 0.6523
vn 0.4642 -0.6820 0.5650
vn 0.5385 -0.8230 0.1807
vn 0.8404 -0.5240 0.1379
vn 0.7562 -0.4561 0.4691
vn 0.8292 -0.2886 0.4787
vn 0.8528 0.2158 -0.4754
vn 0.7893 0.3953 -0.4698
vn 0.8551 0.4986 -0.1416
vn 0.5323 0.0725 -0.8434
vn 0.4899 0.2908 -0.8218
vn 0.1402 0.2408 -0.9604
vn 0.1487 0.7086 -0.6897
vn 0.5058 0.6349 -0.5840
vn 0.5460 0.8165 -0.1877
vn 0.5041 0.2082 0.8381
vn 0.4486 0.4024 0.7980
vn 0.1194 0.3691 0.9217
vn 0.8292 0.2886 0.4787
vn 0.7562 0.4561 0.4691
vn 0.8431 0.5177 0.1453
vn 0.5274 0.8281 0.1898
vn 0.4642 0.6820 0.5650
vn 0.1247 0.7476 0.6523
vn 0.9881 -0.1009 0.1158
vn 0.9116 -0.0917 0.4006
vn 0.8618 -0.2064 0.4634
vn 0.9881 0.1009 0.1158
vn 0.9116 0.0917 0.4006
vn 0.8618 0.2064 0.4634
vn 0.5673 0.1129 0.8157
vn 0.7253 0.0000 0.6884
vn 0.5673 -0.1129 0.8157
vn 0.9905 0.0826 -0.1100
vn 0.9208 0.0288 -0.3889
vn 0.8789 0.1340 -0.4577
vn 0.9867 -0.1184 -0.1111
vn 0.9109 -0.1535 -0.3831
vn 0.8538 -0.2779 -0.4402
vn 0.5674 -0.2480 -0.7851
vn 0.7329 -0.1125 -0.6709
vn 0.5853 -0.0211 -0.8105
vn -0.9881 0.1009 0.1158
vn -0.9116 0.0917 0.4006
vn -0.8618 0.2064 0.4634
vn -0.9881 -0.1009 0.1158
vn -0.9116 -0.0917 0.4006
vn -0.9634 -0.2332 0.1317
vn -0.8618 -0.2064 0.4634
vn -0.5673 -0.1129 0.8157
vn -0.7253 0.0000 0.6884
vn -0.5673 0.1129 0.8157
vn -0.9597 -0.2521 -0.1237
vn -0.9867 -0.1184 -0.1111
vn -0.9109 -0.1535 -0.3831
vn -0.8538 -0.2779 -0.4402
vn -0.9905 0.0826 -0.1100
vn -0.9208 0.0288 -0.3889
vn -0.8789 0.1340 -0.4577
vn -0.5853 -0.0211 -0.8105
vn -0.7329 -0.1125 -0.6709
vn -0.5674 -0.2480 -0.7851
usemtl Paint
s 1
f 134//40 100//41 86//42 147//43
f 158//44 76//45 62//46 171//47
f 123//48 135//49 146//50 110//51
f 98//52 136//53 122//54 74//55 160//56 52//57
f 99//58 51//59 38//60 87//61
f 75//62 124//63 112//64 63//65
f 40//66 172//67 64//68 111//69 148//70 88//71
f 38//60 41//72 43//73 42//74
f 41//72 45//75 46//76 43//73
f 39//77 44//78 46//76 45//75
f 44//78 48//79 49//80 46//76
f 40//66 47//81 49//80 48//79
f 47//81 42//74 43//73 49//80
f 43//73 46//76 49//80
f 50//82 53//83 55//84 54//85
f 53//83 57//86 58//87 55//84
f 51//59 56//88 58//87 57//86
f 56//88 60//89 61//90 58//87
f 52//57 59//91 61//90 60//89
f 59//91 54//85 55//84 61//90
f 55//84 58//87 61//90
f 62//46 65//92 67//93 66//94
f 65//92 69//95 70//96 67//93
f 63//65 68//97 70//96 69//95
f 68//97 72//98 73//99 70//96
f 64//68 71//100 73//99 72//98
f 71//100 66//94 67//93 73//99
f 67//93 70//96 73//99
f 74//55 77//101 79//102 78//103
f 77//101 81//104 82//105 79//102
f 75//62 80//106 82//105 81//104
f 80//106 84//107 85//108 82//105
f 76//45 83//109 85//108 84//107
f 83//109 78//103 79//102 85//108
f 79//102 82//105 85//108
f 86//42 89//110 91//111 90//112
f 89//110 93//113 94//114 91//111
f 87//61 92//115 94//114 93//113
f 92//115 96//116 97//117 94//114
f 88//71 95//118 97//117 96//116
f 95//118 90//112 91//111 97//117
f 91//111 94//114 97//117
f 98//52 101//119 103//120 102//121
f 101//119 105//122 106//123 103//120
f 99//58 104//124 106//123 105//122
f 104//124 108//125 109//126 106//123
f 100//41 107//127 109//126 108//125
f 107//127 102//121 103//120 109//126
f 103//120 106//123 109//126
f 110//51 113//128 115//129 114//130
f 113//128 117//131 118//132 115//129
f 111//69 116//133 118//132 117//131
f 116//133 120//134 121//135 118//132
f 112//64 119//136 121//135 120//134
f 119//136 114//130 115//129 121//135
f 115//129 118//132 121//135
f 122//54 125//137 127//138 126//139
f 125//137 129//140 130//141 127//138
f 123//48 128//142 130//141 129//140
f 128//142 132//143 133//144 130//141
f 124//63 131//145 133//144 132//143
f 131//145 126//139 127//138 133//144
f 127//138 130//141 133//144
f 134//40 137//146 139//147 138//148
f 137//146 141//149 142//150 139//147
f 135//49 140//151 142//150 141//149
f 140//151 144//152 145//153 142//150
f 136//53 143//154 145//153 144//152
f 143//154 138//148 139//147 145//153
f 139//147 142//150 145//153
f 146//50 149//155 151//156 150//157
f 149//155 153//158 154//159 151//156
f 147//43 152//160 154//159 153//158
f 152//160 156//161 157//162 154//159
f 148//70 155//163 157//162 156//161
f 155//163 150//157 151//156 157//162
f 151//156 154//159 157//162
f 158//44 161//164 163//165 162//166
f 161//164 165//167 166//168 163//165
f 159//169 164//170 166//168 165//167
f 164//170 168//171 169//172 166//168
f 160//56 167//173 169//172 168//171
f 167//173 162//166 163//165 169//172
f 163//165 166//168 169//172
f 170//174 173//175 175//176 174//177
f 173//175 177//178 178//179 175//176
f 171//47 176//180 178//179 177//178
f 176//180 180//181 181//182 178//179
f 172//67 179//183 181//182 180//181
f 179//183 174//177 175//176 181//182
f 175//176 178//179 181//182
f 38//60 51//59 57//86 41//72
f 41//72 57//86 53//83 45//75
f 45//75 53//83 50//82 39//77
f 160//56 74//55 78//103 167//173
f 167//173 78//103 83//109 162//166
f 162//166 83//109 76//45 158//44
f 75//62 63//65 69//95 80//106
f 80//106 69//95 65//92 84//107
f 84//107 65//92 62//46 76//45
f 172//67 40//66 48//79 179//183
f 179//183 48//79 44//78 174//177
f 174//177 44//78 39//77 170//174
f 74//55 122//54 126//139 77//101
f 77//101 126//139 131//145 81//104
f 81//104 131//145 124//63 75//62
f 123//48 110//51 114//130 128//142
f 128//142 114//130 119//136 132//143
f 132//143 119//136 112//64 124//63
f 111//69 64//68 72//98 116//133
f 116//133 72//98 68//97 120//134
f 120//134 68//97 63//65 112//64
f 136//53 98//52 102//121 143//154
f 143//154 102//121 107//127 138//148
f 138//148 107//127 100//41 134//40
f 99//58 87//61 93//113 104//124
f 104//124 93//113 89//110 108//125
f 108//125 89//110 86//42 100//41
f 148//70 111//69 117//131 155//163
f 155//163 117//131 113//128 150//157
f 150//157 113//128 110//51 146//50
f 98//52 52//57 60//89 101//119
f 101//119 60//89 56//88 105//122
f 105//122 56//88 51//59 99//58
f 40//66 88//71 96//116 47//81
f 47//81 96//116 92//115 42//74
f 42//74 92//115 87//61 38//60
f 122//54 136//53 144//152 125//137
f 125//137 144//152 140//151 129//140
f 129//140 140//151 135//49 123//48
f 88//71 148//70 156//161 95//118
f 95//118 156//161 152//160 90//112
f 90//112 152//160 147//43 86//42
f 134//40 147//43 153//158 137//146
f 137//146 153//158 149//155 141//149
f 141//149 149//155 146//50 135//49
f 52//57 160//56 168//171 59//91
f 59//91 168//171 164//170 54//85
f 54//85 164//170 159//169 50//82
f 64//68 172//67 180//181 71//100
f 71//100 180//181 176//180 66//94
f 66//94 176//180 171//47 62//46
f 158//44 171//47 177//178 161//164
f 161//164 177//178 173//175 165//167
f 165//167 173//175 170//174 159//169
f 50//82 159//169 170//174 39//77
