# Blender v2.77 (sub 0) OBJ File: 'prop.blend'
# www.blender.org
mtllib prop.mtl
o Cylinder_Cylinder.001
v 0.000000 -0.200000 -0.100000
v 0.000000 -0.000000 -0.100000
v 0.040674 -0.000000 -0.091355
v 0.040674 -0.200000 -0.091355
v 0.074314 -0.200000 -0.066913
v 0.095106 -0.200000 -0.030902
v 0.099452 -0.200000 0.010453
v 0.086603 -0.200000 0.050000
v 0.058779 -0.200000 0.080902
v 0.020791 -0.200000 0.097815
v -0.020791 -0.200000 0.097815
v -0.058779 -0.200000 0.080902
v -0.086603 -0.200000 0.050000
v -0.099452 -0.200000 0.010453
v -0.062158 -0.200000 0.006533
v -0.054127 -0.200000 0.031250
v -0.036737 -0.200000 0.050564
v -0.012994 -0.200000 0.061134
v 0.012994 -0.200000 0.061134
v 0.036737 -0.200000 0.050564
v 0.054127 -0.200000 0.031250
v 0.062158 -0.200000 0.006533
v 0.059441 -0.200000 -0.019314
v 0.046447 -0.200000 -0.041821
v 0.025421 -0.200000 -0.057097
v 0.000000 -0.200000 -0.062500
v -0.025421 -0.200000 -0.057097
v -0.046447 -0.200000 -0.041821
v -0.059441 -0.200000 -0.019314
v -0.095106 -0.200000 -0.030902
v -0.074314 -0.200000 -0.066913
v -0.040674 -0.200000 -0.091355
v -0.040674 -0.000000 -0.091355
v -0.074314 -0.000000 -0.066913
v -0.095106 -0.000000 -0.030902
v -0.099452 -0.000000 0.010453
v -0.062158 -0.000000 0.006533
v -0.059441 -0.000000 -0.019314
v -0.046447 -0.000000 -0.041821
v -0.025421 -0.000000 -0.057097
v 0.000000 -0.000000 -0.062500
v 0.025421 -0.000000 -0.057097
v 0.046447 -0.000000 -0.041821
v 0.059441 -0.000000 -0.019314
v 0.086603 -0.000000 0.050000
v 0.099452 -0.000000 0.010453
v 0.095106 -0.000000 -0.030902
v 0.074314 -0.000000 -0.066913
v 0.062158 -0.000000 0.006533
v 0.054127 -0.000000 0.031250
v 0.036737 -0.000000 0.050564
v 0.012994 -0.000000 0.061134
v -0.012994 -0.000000 0.061134
v -0.036737 -0.000000 0.050564
v -0.054127 -0.000000 0.031250
v -0.086603 -0.000000 0.050000
v -0.058779 -0.000000 0.080902
v -0.020791 -0.000000 0.097815
v 0.020791 -0.000000 0.097815
v 0.058779 -0.000000 0.080902
vn 0.0000 -1.0000 0.0000
vn -0.0000 1.0000 0.0000
vn 0.0000 -0.6631 -0.7485
vn 0.0000 0.6631 -0.7485
vn 0.3044 0.6631 -0.6837
vn 0.3044 -0.6631 -0.6837
vn -0.3044 -0.6631 -0.6837
vn -0.3044 0.6631 -0.6837
vn 0.5562 0.6631 -0.5008
vn 0.5562 -0.6631 -0.5008
vn 0.7118 0.6631 -0.2313
vn 0.7118 -0.6631 -0.2313
vn 0.7443 0.6631 0.0782
vn 0.7443 -0.6631 0.0782
vn 0.6482 0.6631 0.3742
vn 0.6482 -0.6631 0.3742
vn 0.4399 0.6631 0.6055
vn 0.4399 -0.6631 0.6055
vn 0.1556 0.6631 0.7321
vn 0.1556 -0.6631 0.7321
vn -0.1556 0.6631 0.7321
vn -0.1556 -0.6631 0.7321
vn -0.4399 0.6631 0.6055
vn -0.4399 -0.6631 0.6055
vn -0.6482 0.6631 0.3742
vn -0.6482 -0.6631 0.3742
vn -0.7443 0.6631 0.0782
vn -0.7443 -0.6631 0.0782
vn -0.7118 0.6631 -0.2313
vn -0.7118 -0.6631 -0.2313
vn -0.5562 0.6631 -0.5008
vn -0.5562 -0.6631 -0.5008
vn 0.0000 -0.6631 0.7485
vn -0.3044 -0.6631 0.6837
vn -0.3044 0.6631 0.6837
vn 0.0000 0.6631 0.7485
vn 0.3044 -0.6631 0.6837
vn 0.3044 0.6631 0.6837
vn -0.5562 -0.6631 0.5008
vn -0.5562 0.6631 0.5008
vn 0.5562 -0.6631 0.5008
vn 0.5562 0.6631 0.5008
vn -0.6523 -0.7277 0.2120
vn -0.6523 0.7277 0.2120
vn 0.7118 -0.6631 0.2313
vn 0.7118 0.6631 0.2313
vn -0.7443 -0.6631 -0.0782
vn -0.7443 0.6631 -0.0782
vn 0.6498 -0.7570 -0.0683
vn 0.6498 0.7570 -0.0683
vn -0.6482 -0.6631 -0.3742
vn -0.6482 0.6631 -0.3742
vn 0.6482 -0.6631 -0.3742
vn 0.6482 0.6631 -0.3742
vn -0.4399 -0.6631 -0.6055
vn -0.4399 0.6631 -0.6055
vn 0.4399 -0.6631 -0.6055
vn 0.4399 0.6631 -0.6055
vn -0.1556 -0.6631 -0.7321
vn -0.1556 0.6631 -0.7321
vn 0.1556 -0.6631 -0.7321
vn 0.1556 0.6631 -0.7321
usemtl White_Painted
s off
f 4//1 5//1 6//1 7//1 8//1 9//1 10//1 11//1 12//1 13//1 14//1 15//1 16//1 17//1 18//1 19//1 20//1 21//1 22//1 23//1
f 1//1 4//1 23//1 24//1 25//1 26//1 27//1 28//1 29//1 15//1 14//1 30//1 31//1 32//1
f 2//2 33//2 34//2 35//2 36//2 37//2 38//2 39//2 40//2 41//2 42//2 43//2 44//2 45//2 46//2 47//2 48//2 3//2
f 45//2 44//2 49//2 50//2 51//2 52//2 53//2 54//2 55//2 37//2 36//2 56//2 57//2 58//2 59//2 60//2
s 1
f 1//3 2//4 3//5 4//6
f 32//7 33//8 2//4 1//3
f 4//6 3//5 48//9 5//10
f 5//10 48//9 47//11 6//12
f 6//12 47//11 46//13 7//14
f 7//14 46//13 45//15 8//16
f 8//16 45//15 60//17 9//18
f 9//18 60//17 59//19 10//20
f 10//20 59//19 58//21 11//22
f 11//22 58//21 57//23 12//24
f 12//24 57//23 56//25 13//26
f 13//26 56//25 36//27 14//28
f 14//28 36//27 35//29 30//30
f 30//30 35//29 34//31 31//32
f 31//32 34//31 33//8 32//7
f 26//33 25//34 42//35 41//36
f 27//37 26//33 41//36 40//38
f 25//34 24//39 43//40 42//35
f 28//41 27//37 40//38 39//42
f 24//39 23//43 44//44 43//40
f 29//45 28//41 39//42 38//46
f 23//43 22//47 49//48 44//44
f 15//49 29//45 38//46 37//50
f 22//47 21//51 50//52 49//48
f 16//53 15//49 37//50 55//54
f 21//51 20//55 51//56 50//52
f 17//57 16//53 55//54 54//58
f 20//55 19//59 52//60 51//56
f 18//61 17//57 54//58 53//62
f 19//59 18//61 53//62 52//60
o fins_Circle.004
v -0.000000 -0.000000 -0.100000
v 0.070711 -0.200000 -0.070711
v 0.096806 -0.196157 -0.099773
v 0.117149 -0.184776 -0.132066
v 0.128273 -0.166294 -0.167676
v 0.127289 -0.141421 -0.205139
v 0.112543 -0.111114 -0.241343
v 0.084309 -0.076536 -0.272010
v 0.045200 -0.039018 -0.292687
v -0.000000 -0.000000 -0.300000
v -0.000000 -0.000000 -0.100000
v 0.096806 -0.196157 -0.099773
v 0.070711 -0.200000 -0.070711
v 0.117149 -0.184776 -0.132066
v 0.128273 -0.166294 -0.167676
v 0.127289 -0.141421 -0.205139
v 0.112543 -0.111114 -0.241343
v 0.084309 -0.076536 -0.272010
v 0.045200 -0.039018 -0.292687
v -0.000000 -0.000000 -0.300000
v -0.086603 -0.000000 0.050000
v -0.096593 -0.200000 -0.025882
v -0.134809 -0.196157 -0.033950
v -0.172947 -0.184776 -0.035421
v -0.209348 -0.166294 -0.027249
v -0.241300 -0.141421 -0.007666
v -0.265281 -0.111114 0.023206
v -0.277722 -0.076536 0.062992
v -0.276075 -0.039018 0.107199
v -0.259808 -0.000000 0.150000
v -0.086603 -0.000000 0.050000
v -0.134809 -0.196157 -0.033950
v -0.096593 -0.200000 -0.025882
v -0.172947 -0.184776 -0.035421
v -0.209348 -0.166294 -0.027249
v -0.241300 -0.141421 -0.007666
v -0.265281 -0.111114 0.023206
v -0.277722 -0.076536 0.062992
v -0.276075 -0.039018 0.107199
v -0.259808 -0.000000 0.150000
v 0.086603 -0.000000 0.050000
v 0.025882 -0.200000 0.096593
v 0.038003 -0.196157 0.133723
v 0.055798 -0.184776 0.167487
v 0.081076 -0.166294 0.194926
v 0.114011 -0.141421 0.212805
v 0.152738 -0.111114 0.218137
v 0.193413 -0.076536 0.209018
v 0.230875 -0.039018 0.185488
v 0.259808 0.000000 0.150000
v 0.086603 -0.000000 0.050000
v 0.038003 -0.196157 0.133723
v 0.025882 -0.200000 0.096593
v 0.055798 -0.184776 0.167487
v 0.081076 -0.166294 0.194926
v 0.114011 -0.141421 0.212805
v 0.152738 -0.111114 0.218137
v 0.193413 -0.076536 0.209018
v 0.230875 -0.039018 0.185488
v 0.259808 0.000000 0.150000
vn 0.7619 0.5982 0.2483
vn 0.6784 0.3356 0.6535
vn 0.7049 0.3486 0.6177
vn 0.7578 0.3896 0.5234
vn 0.7992 0.4580 0.3892
vn 0.8041 0.5417 0.2448
vn 0.7709 0.6250 0.1225
vn 0.7181 0.6946 0.0429
vn 0.6717 0.7408 0.0075
vn 0.6534 0.7570 0.0000
vn -0.7619 -0.5982 -0.2483
vn -0.7049 -0.3486 -0.6177
vn -0.6784 -0.3356 -0.6535
vn -0.7578 -0.3896 -0.5234
vn -0.7992 -0.4580 -0.3892
vn -0.8041 -0.5417 -0.2448
vn -0.7709 -0.6250 -0.1225
vn -0.7181 -0.6946 -0.0429
vn -0.6717 -0.7408 -0.0075
vn -0.6534 -0.7570 0.0000
vn -0.1659 0.5982 -0.7840
vn 0.2268 0.3356 -0.9143
vn 0.1824 0.3486 -0.9193
vn 0.0743 0.3896 -0.9180
vn -0.0625 0.4580 -0.8867
vn -0.1900 0.5417 -0.8188
vn -0.2794 0.6250 -0.7289
vn -0.3219 0.6946 -0.6433
vn -0.3293 0.7408 -0.5855
vn -0.3267 0.7570 -0.5659
vn 0.1659 -0.5982 0.7840
vn -0.1824 -0.3486 0.9193
vn -0.2268 -0.3356 0.9143
vn -0.0743 -0.3896 0.9180
vn 0.0625 -0.4580 0.8867
vn 0.1900 -0.5417 0.8188
vn 0.2794 -0.6250 0.7289
vn 0.3219 -0.6946 0.6433
vn 0.3293 -0.7408 0.5855
vn 0.3267 -0.7570 0.5659
vn -0.5960 0.5982 0.5356
vn -0.9052 0.3356 0.2608
vn -0.8874 0.3486 0.3016
vn -0.8321 0.3896 0.3946
vn -0.7367 0.4580 0.4975
vn -0.6141 0.5417 0.5739
vn -0.4915 0.6250 0.6064
vn -0.3962 0.6946 0.6004
vn -0.3424 0.7408 0.5779
vn -0.3267 0.7570 0.5659
vn 0.5960 -0.5982 -0.5356
vn 0.8874 -0.3486 -0.3016
vn 0.9052 -0.3356 -0.2608
vn 0.8321 -0.3896 -0.3946
vn 0.7367 -0.4580 -0.4975
vn 0.6141 -0.5417 -0.5739
vn 0.4915 -0.6250 -0.6064
vn 0.3962 -0.6946 -0.6004
vn 0.3424 -0.7408 -0.5779
vn 0.3267 -0.7570 -0.5659
usemtl White_Painted
s 1
f 61//63 62//64 63//65
f 61//63 63//65 64//66
f 61//63 64//66 65//67
f 61//63 65//67 66//68
f 61//63 66//68 67//69
f 61//63 67//69 68//70
f 61//63 68//70 69//71
f 61//63 69//71 70//72
f 71//73 72//74 73//75
f 71//73 74//76 72//74
f 71//73 75//77 74//76
f 71//73 76//78 75//77
f 71//73 77//79 76//78
f 71//73 78//80 77//79
f 71//73 79//81 78//80
f 71//73 80//82 79//81
f 81//83 82//84 83//85
f 81//83 83//85 84//86
f 81//83 84//86 85//87
f 81//83 85//87 86//88
f 81//83 86//88 87//89
f 81//83 87//89 88//90
f 81//83 88//90 89//91
f 81//83 89//91 90//92
f 91//93 92//94 93//95
f 91//93 94//96 92//94
f 91//93 95//97 94//96
f 91//93 96//98 95//97
f 91//93 97//99 96//98
f 91//93 98//100 97//99
f 91//93 99//101 98//100
f 91//93 100//102 99//101
f 101//103 102//104 103//105
f 101//103 103//105 104//106
f 101//103 104//106 105//107
f 101//103 105//107 106//108
f 101//103 106//108 107//109
f 101//103 107//109 108//110
f 101//103 108//110 109//111
f 101//103 109//111 110//112
f 111//113 112//114 113//115
f 111//113 114//116 112//114
f 111//113 115//117 114//116
f 111//113 116//118 115//117
f 111//113 117//119 116//118
f 111//113 118//120 117//119
f 111//113 119//121 118//120
f 111//113 120//122 119//121
